<svg width="1039" height="281" viewBox="0 0 1039 281" fill="white" xmlns="http://www.w3.org/2000/svg">
<path d="M147.703 139.553L147.709 139.563L147.715 139.573C154.808 151.356 158.5 165.181 158.5 180C158.5 223.316 120.21 258.5 80 258.5C36.6456 258.5 1.5 223.354 1.5 180C1.5 165.21 5.58858 151.38 12.6963 139.573L12.7034 139.561L12.7102 139.549L80.0039 22.9933L147.703 139.553Z" fill="white" stroke="black" stroke-width="3"/>
<path d="M268.417 100.773L260.214 100.07C249.433 100.07 240.409 103.586 233.144 110.617C225.878 117.57 221.113 127.336 218.847 139.914V223H212.519V96.2031H218.847V122.57C222.284 113.742 227.441 106.75 234.316 101.594C241.191 96.4375 249.823 93.8594 260.214 93.8594C263.886 93.8594 266.855 94.2891 269.12 95.1484L268.417 100.773Z" fill="black"/>
<path d="M366.536 223C364.973 217.609 364.192 209.875 364.192 199.797C359.192 207.922 352.356 214.211 343.684 218.664C335.013 223.117 325.208 225.344 314.27 225.344C302.552 225.344 293.098 222.18 285.911 215.852C278.802 209.445 275.247 201.125 275.247 190.891C275.247 179.25 280.481 169.953 290.95 163C301.497 155.969 315.481 152.375 332.903 152.219H364.192V133.703C364.192 123.078 360.833 114.836 354.114 108.977C347.473 103.117 337.942 100.188 325.52 100.188C313.958 100.188 304.309 103.156 296.575 109.094C288.841 115.031 284.973 122.375 284.973 131.125L278.645 130.891C278.645 120.578 283.177 111.828 292.239 104.641C301.302 97.4531 312.395 93.8594 325.52 93.8594C339.192 93.8594 350.052 97.2969 358.098 104.172C366.145 110.969 370.286 120.578 370.52 133V193.586C370.52 207.492 371.614 216.945 373.802 221.945V223H366.536ZM314.27 219.133C326.145 219.133 336.341 216.477 344.856 211.164C353.45 205.852 359.895 198.391 364.192 188.781V158.664H334.895C316.77 158.664 302.903 162.258 293.294 169.445C285.481 175.305 281.575 182.609 281.575 191.359C281.575 199.094 284.661 205.656 290.833 211.047C297.005 216.438 304.817 219.133 314.27 219.133Z" fill="black"/>
<path d="M415.67 223H409.342V96.2031H415.67V223ZM406.061 56.5938C406.061 54.7969 406.686 53.2734 407.936 52.0234C409.186 50.6953 410.709 50.0312 412.506 50.0312C414.303 50.0312 415.827 50.6953 417.077 52.0234C418.405 53.2734 419.069 54.7969 419.069 56.5938C419.069 58.3906 418.405 59.9141 417.077 61.1641C415.827 62.4141 414.303 63.0391 412.506 63.0391C410.709 63.0391 409.186 62.4141 407.936 61.1641C406.686 59.9141 406.061 58.3906 406.061 56.5938Z" fill="black"/>
<path d="M460 125.734C464.141 115.891 470.234 108.117 478.281 102.414C486.328 96.7109 495.234 93.8594 505 93.8594C518.594 93.8594 528.672 97.7266 535.234 105.461C541.875 113.117 545.234 124.719 545.313 140.266V223H538.984V140.031C538.906 126.438 536.133 116.398 530.664 109.914C525.195 103.352 516.523 100.07 504.648 100.07C493.711 100.07 484.219 103.977 476.172 111.789C468.203 119.523 462.813 129.523 460 141.789V223H453.672V96.2031H460V125.734Z" fill="black"/>
<path d="M592.455 96.2031L592.923 116.828C597.611 109.172 603.47 103.43 610.502 99.6016C617.533 95.7734 625.345 93.8594 633.939 93.8594C653.939 93.8594 666.634 102.062 672.025 118.469C676.556 110.578 682.611 104.523 690.189 100.305C697.767 96.0078 706.127 93.8594 715.267 93.8594C742.455 93.8594 756.322 108.703 756.869 138.391V223H742.806V139.445C742.728 128.117 740.267 119.719 735.423 114.25C730.658 108.781 722.845 106.047 711.986 106.047C701.908 106.203 693.392 109.484 686.439 115.891C679.486 122.219 675.619 129.953 674.838 139.094V223H660.775V138.391C660.697 127.531 658.119 119.445 653.041 114.133C648.041 108.742 640.306 106.047 629.838 106.047C621.009 106.047 613.431 108.586 607.103 113.664C600.775 118.664 596.088 126.125 593.041 136.047V223H578.978V96.2031H592.455Z" fill="black"/>
<path d="M837.995 225.344C827.214 225.344 817.448 222.688 808.698 217.375C800.027 212.062 793.269 204.68 788.425 195.227C783.581 185.695 781.159 175.031 781.159 163.234V158.195C781.159 146.008 783.503 135.031 788.191 125.266C792.956 115.5 799.558 107.844 807.995 102.297C816.433 96.6719 825.573 93.8594 835.417 93.8594C850.808 93.8594 862.995 99.1328 871.98 109.68C881.042 120.148 885.573 134.484 885.573 152.688V160.539H795.105V163.234C795.105 177.609 799.206 189.602 807.409 199.211C815.691 208.742 826.081 213.508 838.581 213.508C846.081 213.508 852.683 212.141 858.386 209.406C864.167 206.672 869.402 202.297 874.089 196.281L882.878 202.961C872.566 217.883 857.605 225.344 837.995 225.344ZM835.417 105.812C824.87 105.812 815.964 109.68 808.698 117.414C801.511 125.148 797.136 135.539 795.573 148.586H871.628V147.062C871.238 134.875 867.761 124.953 861.198 117.297C854.636 109.641 846.042 105.812 835.417 105.812Z" fill="black"/>
<path d="M985.216 190.773C985.216 183.82 982.403 178.234 976.778 174.016C971.231 169.797 962.833 166.516 951.583 164.172C940.333 161.75 931.583 159.016 925.333 155.969C919.161 152.844 914.552 149.055 911.505 144.602C908.536 140.148 907.052 134.758 907.052 128.43C907.052 118.43 911.231 110.188 919.591 103.703C927.95 97.1406 938.653 93.8594 951.7 93.8594C965.841 93.8594 977.169 97.375 985.684 104.406C994.278 111.359 998.575 120.461 998.575 131.711H984.513C984.513 124.289 981.388 118.117 975.138 113.195C968.966 108.273 961.153 105.812 951.7 105.812C942.481 105.812 935.059 107.883 929.434 112.023C923.888 116.086 921.114 121.398 921.114 127.961C921.114 134.289 923.419 139.211 928.028 142.727C932.716 146.164 941.192 149.328 953.458 152.219C965.802 155.109 975.02 158.195 981.114 161.477C987.286 164.758 991.856 168.703 994.825 173.312C997.794 177.922 999.278 183.508 999.278 190.07C999.278 200.773 994.942 209.328 986.27 215.734C977.677 222.141 966.427 225.344 952.52 225.344C937.755 225.344 925.763 221.789 916.544 214.68C907.403 207.492 902.833 198.43 902.833 187.492H916.895C917.442 195.695 920.88 202.102 927.208 206.711C933.614 211.242 942.052 213.508 952.52 213.508C962.286 213.508 970.177 211.359 976.192 207.062C982.208 202.766 985.216 197.336 985.216 190.773Z" fill="black"/>
<path d="M268.417 100.773L260.214 100.07C249.433 100.07 240.409 103.586 233.144 110.617C225.878 117.57 221.113 127.336 218.847 139.914V223H212.519V96.2031H218.847V122.57C222.284 113.742 227.441 106.75 234.316 101.594C241.191 96.4375 249.823 93.8594 260.214 93.8594C263.886 93.8594 266.855 94.2891 269.12 95.1484L268.417 100.773Z" stroke="black"/>
<path d="M366.536 223C364.973 217.609 364.192 209.875 364.192 199.797C359.192 207.922 352.356 214.211 343.684 218.664C335.013 223.117 325.208 225.344 314.27 225.344C302.552 225.344 293.098 222.18 285.911 215.852C278.802 209.445 275.247 201.125 275.247 190.891C275.247 179.25 280.481 169.953 290.95 163C301.497 155.969 315.481 152.375 332.903 152.219H364.192V133.703C364.192 123.078 360.833 114.836 354.114 108.977C347.473 103.117 337.942 100.188 325.52 100.188C313.958 100.188 304.309 103.156 296.575 109.094C288.841 115.031 284.973 122.375 284.973 131.125L278.645 130.891C278.645 120.578 283.177 111.828 292.239 104.641C301.302 97.4531 312.395 93.8594 325.52 93.8594C339.192 93.8594 350.052 97.2969 358.098 104.172C366.145 110.969 370.286 120.578 370.52 133V193.586C370.52 207.492 371.614 216.945 373.802 221.945V223H366.536ZM314.27 219.133C326.145 219.133 336.341 216.477 344.856 211.164C353.45 205.852 359.895 198.391 364.192 188.781V158.664H334.895C316.77 158.664 302.903 162.258 293.294 169.445C285.481 175.305 281.575 182.609 281.575 191.359C281.575 199.094 284.661 205.656 290.833 211.047C297.005 216.438 304.817 219.133 314.27 219.133Z" stroke="black"/>
<path d="M415.67 223H409.342V96.2031H415.67V223ZM406.061 56.5938C406.061 54.7969 406.686 53.2734 407.936 52.0234C409.186 50.6953 410.709 50.0312 412.506 50.0312C414.303 50.0312 415.827 50.6953 417.077 52.0234C418.405 53.2734 419.069 54.7969 419.069 56.5938C419.069 58.3906 418.405 59.9141 417.077 61.1641C415.827 62.4141 414.303 63.0391 412.506 63.0391C410.709 63.0391 409.186 62.4141 407.936 61.1641C406.686 59.9141 406.061 58.3906 406.061 56.5938Z" stroke="black"/>
<path d="M460 125.734C464.141 115.891 470.234 108.117 478.281 102.414C486.328 96.7109 495.234 93.8594 505 93.8594C518.594 93.8594 528.672 97.7266 535.234 105.461C541.875 113.117 545.234 124.719 545.313 140.266V223H538.984V140.031C538.906 126.438 536.133 116.398 530.664 109.914C525.195 103.352 516.523 100.07 504.648 100.07C493.711 100.07 484.219 103.977 476.172 111.789C468.203 119.523 462.813 129.523 460 141.789V223H453.672V96.2031H460V125.734Z" stroke="black"/>
<path d="M592.455 96.2031L592.923 116.828C597.611 109.172 603.47 103.43 610.502 99.6016C617.533 95.7734 625.345 93.8594 633.939 93.8594C653.939 93.8594 666.634 102.062 672.025 118.469C676.556 110.578 682.611 104.523 690.189 100.305C697.767 96.0078 706.127 93.8594 715.267 93.8594C742.455 93.8594 756.322 108.703 756.869 138.391V223H742.806V139.445C742.728 128.117 740.267 119.719 735.423 114.25C730.658 108.781 722.845 106.047 711.986 106.047C701.908 106.203 693.392 109.484 686.439 115.891C679.486 122.219 675.619 129.953 674.838 139.094V223H660.775V138.391C660.697 127.531 658.119 119.445 653.041 114.133C648.041 108.742 640.306 106.047 629.838 106.047C621.009 106.047 613.431 108.586 607.103 113.664C600.775 118.664 596.088 126.125 593.041 136.047V223H578.978V96.2031H592.455Z" stroke="black"/>
<path d="M837.995 225.344C827.214 225.344 817.448 222.688 808.698 217.375C800.027 212.062 793.269 204.68 788.425 195.227C783.581 185.695 781.159 175.031 781.159 163.234V158.195C781.159 146.008 783.503 135.031 788.191 125.266C792.956 115.5 799.558 107.844 807.995 102.297C816.433 96.6719 825.573 93.8594 835.417 93.8594C850.808 93.8594 862.995 99.1328 871.98 109.68C881.042 120.148 885.573 134.484 885.573 152.688V160.539H795.105V163.234C795.105 177.609 799.206 189.602 807.409 199.211C815.691 208.742 826.081 213.508 838.581 213.508C846.081 213.508 852.683 212.141 858.386 209.406C864.167 206.672 869.402 202.297 874.089 196.281L882.878 202.961C872.566 217.883 857.605 225.344 837.995 225.344ZM835.417 105.812C824.87 105.812 815.964 109.68 808.698 117.414C801.511 125.148 797.136 135.539 795.573 148.586H871.628V147.062C871.238 134.875 867.761 124.953 861.198 117.297C854.636 109.641 846.042 105.812 835.417 105.812Z" stroke="black"/>
<path d="M985.216 190.773C985.216 183.82 982.403 178.234 976.778 174.016C971.231 169.797 962.833 166.516 951.583 164.172C940.333 161.75 931.583 159.016 925.333 155.969C919.161 152.844 914.552 149.055 911.505 144.602C908.536 140.148 907.052 134.758 907.052 128.43C907.052 118.43 911.231 110.188 919.591 103.703C927.95 97.1406 938.653 93.8594 951.7 93.8594C965.841 93.8594 977.169 97.375 985.684 104.406C994.278 111.359 998.575 120.461 998.575 131.711H984.513C984.513 124.289 981.388 118.117 975.138 113.195C968.966 108.273 961.153 105.812 951.7 105.812C942.481 105.812 935.059 107.883 929.434 112.023C923.888 116.086 921.114 121.398 921.114 127.961C921.114 134.289 923.419 139.211 928.028 142.727C932.716 146.164 941.192 149.328 953.458 152.219C965.802 155.109 975.02 158.195 981.114 161.477C987.286 164.758 991.856 168.703 994.825 173.312C997.794 177.922 999.278 183.508 999.278 190.07C999.278 200.773 994.942 209.328 986.27 215.734C977.677 222.141 966.427 225.344 952.52 225.344C937.755 225.344 925.763 221.789 916.544 214.68C907.403 207.492 902.833 198.43 902.833 187.492H916.895C917.442 195.695 920.88 202.102 927.208 206.711C933.614 211.242 942.052 213.508 952.52 213.508C962.286 213.508 970.177 211.359 976.192 207.062C982.208 202.766 985.216 197.336 985.216 190.773Z" stroke="black"/>
</svg>
